<?xml version="1.0" encoding="UTF-8" standalone="no"?><!DOCTYPE svg PUBLIC "-//W3C//DTD SVG 1.1//EN" "http://www.w3.org/Graphics/SVG/1.1/DTD/svg11.dtd"><svg width="100%" height="100%" viewBox="0 0 4167 4167" version="1.1" xmlns="http://www.w3.org/2000/svg" xmlns:xlink="http://www.w3.org/1999/xlink" xml:space="preserve" xmlns:serif="http://www.serif.com/" style="fill-rule:evenodd;clip-rule:evenodd;stroke-linejoin:round;stroke-miterlimit:2;"><g id="Layer_2"><path d="M3718.75,2273.08c-10.042,-262.5 -530.208,-481.958 -1231.96,-543.833c3.041,-9.375 6.333,-18.75 8.875,-28.125c33.916,-126 37.291,-250 39.416,-373.208c-1.416,-103.25 -23.166,-203.625 -42.875,-304.667c-20.833,-100.875 -43.625,-202.542 -74.25,-301.083c-30.8,-98.078 -68.391,-193.893 -112.5,-286.75c-43.375,-93.125 -89.333,-183.584 -141.958,-273.417l-82.917,-141.167l-75.958,141.167c-59.667,110.917 -112.958,221.833 -163.542,335.542c-50.583,113.708 -97.208,228.916 -132.75,348.958c-35.541,120.042 -66.333,241.667 -84.333,366.667c-10.125,62.5 -9.875,128.458 -6,189.708c3.355,62.971 10.311,125.699 20.833,187.875c8.043,47.228 20.271,93.648 36.542,138.708c-699.458,62.5 -1217.42,281.625 -1227.42,543.459l-0.958,-0l-0,1305.12c1.875,313.625 733.708,567.791 1636.33,567.791c902.625,0 1634.46,-254.166 1636.25,-567.791l0,-1304.96l-0.833,0Zm-2000.58,-450.375c26.221,46.538 61.065,87.661 102.666,121.167c22.117,17.69 46.225,32.737 71.834,44.833l-0,-156.458c-10.159,-5.639 -19.994,-11.843 -29.459,-18.583c-18.58,-13.644 -35.849,-28.988 -51.583,-45.834c-13.527,-14.407 -26.056,-29.721 -37.5,-45.833c-31.81,-44.705 -56.245,-94.224 -72.375,-146.667c-34.583,-112.083 -45.375,-238.583 -18.542,-351.625c26.75,-115.791 79.292,-226.125 133.459,-333.916l168.25,-321.667c31.5,-58.333 63.916,-116.292 96.708,-173.958l65.75,120.833c46.792,88.167 95.833,175 146.083,261.792c51.417,86.25 102.125,173.166 145.292,264.041c43.167,90.875 76.375,187.5 79.167,287.209c-0.099,60.805 -6.862,121.417 -20.167,180.75c-14.131,58.093 -36.378,113.906 -66.083,165.791c-9.608,16.685 -20.283,32.733 -31.959,48.042c-12.018,16.195 -25.176,31.512 -39.375,45.833c-16.872,16.856 -35.254,32.128 -54.916,45.625c-8.625,5.917 -17.375,11.459 -26.292,16.667l0,156.75c49.912,-25.274 93.657,-61.224 128.125,-105.292c14.762,-18.776 27.893,-38.779 39.25,-59.791c726.333,57.541 1162.5,280.625 1175.29,450.5c-0,2.541 1.208,5.166 1.208,7.666c0.042,197.375 -585.5,472.459 -1539.67,472.459c-954.166,-0 -1539.71,-275 -1539.71,-472.292c0,-170.625 438.625,-399.375 1174.54,-458.042Z" style="fill:#050a15;fill-rule:nonzero;"/><path d="M2085.88,1392.96c-40.042,0 -72.5,11.292 -72.5,25.209l0,845.833c0,13.917 32.458,25 72.5,25c40.042,0 72.5,-11.292 72.5,-25l0,-845.833c-0.042,-14 -32.458,-25.209 -72.5,-25.209Z" style="fill:#050a15;fill-rule:nonzero;"/></g></svg>